# Blender v2.79 (sub 0) OBJ File: 'scene.blend'
# www.blender.org
mtllib 1.mtl
o Floor_Plane001
v -62.952667 -0.150863 -39.369991
v -39.899029 -0.150848 -15.698202
v -39.899029 -0.150848 -39.369987
v -62.952671 -0.150863 -15.698202
v -39.899033 -0.150848 7.973486
v -62.952671 -0.150863 7.973485
v -39.899033 -0.150848 31.645176
v -62.952671 -0.150863 31.645176
v -39.899033 -0.150848 55.316963
v -16.845287 -0.150832 -15.698200
v -16.845287 -0.150832 -39.369987
v -16.845289 -0.150832 7.973487
v -16.845289 -0.150832 31.645178
v -16.845291 -0.150832 55.316963
v 6.208454 -0.150817 -15.698198
v 6.208454 -0.150817 -39.369987
v 6.208452 -0.150817 7.973489
v 6.208450 -0.150817 31.645180
v 6.208450 -0.150817 55.316963
v 29.262196 -0.150801 -15.698198
v 29.262199 -0.150801 -39.369984
v 29.262196 -0.150801 7.973490
v 29.262196 -0.150801 31.645180
v 29.262192 -0.150801 55.316967
v -62.952675 -0.150863 55.316959
vt 0.000000 0.000000
vt 0.250000 0.250000
vt 0.000000 0.250000
vt 0.250000 0.000000
vt 0.500000 0.250000
vt 0.500000 0.000000
vt 0.750000 0.250000
vt 0.750000 0.000000
vt 1.000000 0.250000
vt 0.250000 0.500000
vt 0.000000 0.500000
vt 0.500000 0.500000
vt 0.750000 0.500000
vt 1.000000 0.500000
vt 0.250000 0.750000
vt 0.000000 0.750000
vt 0.500000 0.750000
vt 0.750000 0.750000
vt 1.000000 0.750000
vt 0.250000 1.000000
vt 0.000000 1.000000
vt 0.500000 1.000000
vt 0.750000 1.000000
vt 1.000000 1.000000
vt 1.000000 0.000000
vn -0.0000 1.0000 0.0000
usemtl Material.001
s 1
f 1/1/1 2/2/1 3/3/1
f 4/4/1 5/5/1 2/2/1
f 6/6/1 7/7/1 5/5/1
f 8/8/1 9/9/1 7/7/1
f 3/3/1 10/10/1 11/11/1
f 2/2/1 12/12/1 10/10/1
f 5/5/1 13/13/1 12/12/1
f 7/7/1 14/14/1 13/13/1
f 11/11/1 15/15/1 16/16/1
f 10/10/1 17/17/1 15/15/1
f 12/12/1 18/18/1 17/17/1
f 13/13/1 19/19/1 18/18/1
f 16/16/1 20/20/1 21/21/1
f 15/15/1 22/22/1 20/20/1
f 17/17/1 23/23/1 22/22/1
f 18/18/1 24/24/1 23/23/1
f 1/1/1 4/4/1 2/2/1
f 4/4/1 6/6/1 5/5/1
f 6/6/1 8/8/1 7/7/1
f 8/8/1 25/25/1 9/9/1
f 3/3/1 2/2/1 10/10/1
f 2/2/1 5/5/1 12/12/1
f 5/5/1 7/7/1 13/13/1
f 7/7/1 9/9/1 14/14/1
f 11/11/1 10/10/1 15/15/1
f 10/10/1 12/12/1 17/17/1
f 12/12/1 13/13/1 18/18/1
f 13/13/1 14/14/1 19/19/1
f 16/16/1 15/15/1 20/20/1
f 15/15/1 17/17/1 22/22/1
f 17/17/1 18/18/1 23/23/1
f 18/18/1 19/19/1 24/24/1
